<?xml version="1.0" encoding="utf-8"?>
<!-- Generator: Adobe Illustrator 19.0.0, SVG Export Plug-In . SVG Version: 6.00 Build 0)  -->
<svg version="1.1" id="Layer_1" xmlns="http://www.w3.org/2000/svg" xmlns:xlink="http://www.w3.org/1999/xlink" x="0px" y="0px"
	 viewBox="0 0 177.6 92.3" style="enable-background:new 0 0 177.6 92.3;" xml:space="preserve">
<style type="text/css">
	.st0{fill:#ffffff;}
	.st1{fill-rule:evenodd;clip-rule:evenodd;fill:#ffffff;}
</style>
<g>
	<path class="st0" d="M73,29.2c2.9,1.4,3.2,4.1,2.9,5.7c-0.5,3.4-2.8,5.4-7.4,5.4H60V19.5h8.4c4,0,6.9,2.4,6.8,6.4
		C75.1,26.8,74.5,28.5,73,29.2z M68.4,27.6c2.6,0,2.6-3.7,0-3.7h-3.1v3.7H68.4z M68.4,35.7c3.2,0,3.1-4.3,0-4.3h-3.1v4.3H68.4z"/>
	<path class="st0" d="M95.6,40.3H90l-1.4-4.2h-5.6l-1.3,4.2h-5.6l7.3-20.8h4.8L95.6,40.3z M87.4,31.5l-1.4-6.1h-0.1l-1.5,6.1H87.4z"
		/>
	<path class="st0" d="M108,19.5h6.6l-8.2,10.1l8.2,10.8h-6.7l-5.3-7.4l-0.2,0.2v7.2H97V19.5h5.3v7.7L108,19.5z"/>
	<path class="st0" d="M121.1,33.4c0,3.4,5.9,3.4,6,0V19.5h5.3v13.8c0,9.8-16.6,9.8-16.6,0V19.5h5.3V33.4z"/>
	<path class="st0" d="M65.3,65.2H60V44.4h5.3v7.9h6v-7.9h5.3v20.8h-5.3v-7.9h-6V65.2z"/>
	<path class="st0" d="M79.4,51.2c0-4.8,4.3-7.1,8.6-7.1c4.3,0,8.6,2.4,8.6,7.1v7.1c0,4.8-4.3,7.1-8.6,7.1c-4.3,0-8.6-2.4-8.6-7.1
		V51.2z M84.7,58.4c0,1.5,1.7,2.3,3.4,2.3c1.7,0,3.4-0.8,3.4-2.3v-7.1c0-1.6-1.7-2.4-3.4-2.4c-1.6,0-3.3,0.8-3.3,2.4V58.4z"/>
	<path class="st0" d="M99.5,44.4h5.3V60h8.5v5.2H99.5V44.4z"/>
	<path class="st0" d="M120.6,65.2h-5.3V44.4h5.3V65.2z"/>
	<path class="st0" d="M131.7,44.4c4.2,0,8.1,2.1,8.1,7v7c0,4.8-3.9,6.9-8.1,6.9h-7.8V44.4H131.7z M131.8,60.3c1.8,0,2.6-0.9,2.6-2.3
		v-6.5c0-1.4-0.9-2.2-2.6-2.2h-2.7v11H131.8z"/>
	<path class="st0" d="M159.7,65.2H154l-1.4-4.2h-5.6l-1.3,4.2h-5.6l7.3-20.8h4.8L159.7,65.2z M151.4,56.4l-1.4-6.1h-0.1l-1.5,6.1
		H151.4z"/>
	<path class="st0" d="M163.5,65.2V57l-7.3-12.6h6.1l3.8,7.6l3.8-7.6h6.2L168.8,57v8.2H163.5z"/>
	<path class="st0" d="M69.6,74.3v15.8h-5.3V74.3h-5.5v-5h16.4v5H69.6z"/>
	<path class="st0" d="M83.5,83.5h-0.9v6.6h-5.3V69.3h8.3c4.3,0,7.6,2,7.7,6.9c0,3.9-1.6,6-4.1,6.8l5.7,7.1h-6.6L83.5,83.5z M85.6,79
		c3.3,0,3.3-4.8,0-4.8h-3.1V79H85.6z"/>
	<path class="st0" d="M113.9,90.1h-5.6l-1.4-4.2h-5.6l-1.3,4.2h-5.6l7.3-20.8h4.8L113.9,90.1z M105.6,81.3l-1.4-6.1H104l-1.5,6.1
		H105.6z"/>
	<path class="st0" d="M125.4,69.3h5.6l-7.5,20.8h-4.8l-7.5-20.8h5.6l3.3,10.2l0.9,4.9h0.1l0.9-4.9L125.4,69.3z"/>
	<path class="st0" d="M137.7,77.5h8.4V82h-8.4v3.1h9.2v5h-14.5V69.3h14.5v4.9h-9.2V77.5z"/>
	<path class="st0" d="M149.7,69.3h5.3v15.6h8.5v5.2h-13.8V69.3z"/>
	<g id="S0xeON_6_">
		<g>
			<path class="st1" d="M39.5,86.6c-0.6,0-1.1-0.5-1.1-1.1c0-0.6,0.5-1.1,1.1-1.1c0.6,0,1.1,0.5,1.1,1.1
				C40.6,86.1,40.1,86.6,39.5,86.6z"/>
			<path class="st1" d="M16.5,63.6c0-0.6,0.5-1.1,1.1-1.1c0.6,0,1.1,0.5,1.1,1.1c0,0.6-0.5,1.1-1.1,1.1C17,64.7,16.5,64.2,16.5,63.6
				z"/>
			<path class="st1" d="M39.5,5.4c0.6,0,1.1,0.5,1.1,1.1c0,0.6-0.5,1.1-1.1,1.1c-0.6,0-1.1-0.5-1.1-1.1C38.4,5.8,38.9,5.4,39.5,5.4z
				"/>
			<path class="st1" d="M74.7,5.4c0.6,0,1.1,0.5,1.1,1.1c0,0.6-0.5,1.1-1.1,1.1c-0.6,0-1.1-0.5-1.1-1.1C73.6,5.8,74.1,5.4,74.7,5.4z
				"/>
			<path class="st1" d="M16.5,28.4c0-0.6,0.5-1.1,1.1-1.1c0.6,0,1.1,0.5,1.1,1.1c0,0.6-0.5,1.1-1.1,1.1C17,29.5,16.5,29,16.5,28.4z"
				/>
			<path class="st1" d="M58.2,89.3c0,0.6-0.5,1-1.1,1c-0.6,0-1.1-0.5-1-1.1c0-0.6,0.5-1.1,1.2-1C57.8,88.2,58.2,88.7,58.2,89.3z"/>
			<path class="st1" d="M13.8,44.9c0.6,0,1.1,0.5,1.1,1.1c0,0.6-0.5,1.1-1.1,1.1c-0.6,0-1.1-0.5-1.1-1.1
				C12.7,45.4,13.2,44.9,13.8,44.9z"/>
			<path class="st1" d="M58.2,2.7c0,0.6-0.5,1.1-1.1,1.1c-0.6,0-1.1-0.5-1.1-1.1c0-0.6,0.5-1.1,1.1-1.1C57.7,1.6,58.2,2.1,58.2,2.7z
				"/>
			<path class="st1" d="M15.1,41.4c0,0.6-0.5,1.1-1.1,1.1c-0.6,0-1.1-0.5-1.1-1.1c0-0.6,0.5-1.1,1.1-1.1
				C14.7,40.4,15.1,40.8,15.1,41.4z"/>
			<path class="st1" d="M15.1,50.5c0,0.6-0.5,1.1-1.1,1.1c-0.6,0-1.1-0.5-1.1-1.1c0-0.6,0.5-1.1,1.1-1.1
				C14.7,49.4,15.1,49.9,15.1,50.5z"/>
			<path class="st1" d="M61.6,4c-0.6,0-1.1-0.5-1.1-1.1c0-0.6,0.5-1.1,1.1-1.1c0.6,0,1.1,0.5,1.1,1.1C62.7,3.5,62.2,4,61.6,4z"/>
			<path class="st1" d="M53.7,89c0,0.6-0.5,1.1-1.1,1.1c-0.6,0-1.1-0.5-1.1-1.1c0-0.6,0.5-1.1,1.1-1.1C53.2,87.9,53.7,88.4,53.7,89z
				"/>
			<path class="st1" d="M53.7,2.9c0,0.6-0.4,1.1-1,1.1c-0.6,0-1.1-0.5-1.1-1.1c0-0.6,0.5-1.1,1.1-1.1C53.2,1.8,53.7,2.3,53.7,2.9z"
				/>
			<path class="st1" d="M49.2,3.6c0,0.6-0.5,1.1-1,1.1c-0.6,0-1.1-0.5-1.1-1.1c0-0.6,0.5-1.1,1.1-1.1C48.7,2.6,49.2,3,49.2,3.6z"/>
			<path class="st1" d="M66.1,4.7c-0.6,0-1.1-0.5-1.1-1.1c0-0.6,0.5-1.1,1.1-1.1c0.6,0,1.1,0.5,1.1,1.1C67.2,4.2,66.7,4.7,66.1,4.7z
				"/>
			<path class="st1" d="M15.8,37c0,0.6-0.5,1.1-1.1,1.1c-0.6,0-1.1-0.5-1.1-1.1c0-0.6,0.5-1.1,1.1-1.1C15.4,35.9,15.8,36.4,15.8,37z
				"/>
			<path class="st1" d="M49.2,88.3c0,0.6-0.5,1.1-1.1,1.1c-0.6,0-1.1-0.5-1.1-1.1c0-0.6,0.5-1.1,1.1-1.1
				C48.7,87.2,49.2,87.7,49.2,88.3z"/>
			<path class="st1" d="M15.8,55c0,0.6-0.5,1.1-1.1,1.1c-0.6,0-1.1-0.5-1.1-1.1c0-0.6,0.5-1.1,1.1-1.1C15.4,53.9,15.9,54.4,15.8,55z
				"/>
			<path class="st1" d="M43.7,88.2c-0.6,0-1.1-0.5-1.1-1.1c0-0.6,0.5-1.1,1.1-1.1c0.6,0,1.1,0.5,1.1,1.1
				C44.8,87.7,44.3,88.2,43.7,88.2z"/>
			<path class="st1" d="M22.1,70.3c0.6,0,1.1,0.5,1.1,1.1c0,0.6-0.5,1.1-1.1,1.1c-0.6,0-1.1-0.5-1.1-1.1
				C21,70.8,21.5,70.3,22.1,70.3z"/>
			<path class="st1" d="M17,59.3c0,0.6-0.5,1.1-1.1,1.1c-0.6,0-1.1-0.5-1.1-1.1c0-0.6,0.5-1.1,1.1-1.1C16.5,58.3,17,58.7,17,59.3z"
				/>
			<path class="st1" d="M43.7,3.7c0.6,0,1.1,0.5,1.1,1.1c0,0.6-0.5,1.1-1.1,1.1c-0.6,0-1.1-0.5-1-1.1C42.7,4.2,43.2,3.7,43.7,3.7z"
				/>
			<path class="st1" d="M70.5,5.9c-0.6,0-1.1-0.5-1.1-1.1c0-0.6,0.5-1.1,1.1-1.1c0.6,0,1.1,0.5,1.1,1.1C71.6,5.4,71.1,5.9,70.5,5.9z
				"/>
			<path class="st1" d="M17,32.6c0,0.6-0.5,1.1-1.1,1c-0.6,0-1.1-0.5-1.1-1.1c0-0.6,0.5-1.1,1.1-1.1C16.6,31.5,17,32,17,32.6z"/>
			<path class="st1" d="M32.7,11c0,0.6-0.5,1.1-1.1,1.1c-0.6,0-1.1-0.5-1.1-1.1c0-0.6,0.5-1.1,1.1-1.1C32.3,9.9,32.7,10.4,32.7,11z"
				/>
			<path class="st1" d="M28.1,14.9c-0.6,0-1.1-0.5-1.1-1.1c0-0.6,0.5-1.1,1.1-1.1c0.6,0,1.1,0.5,1.1,1.1
				C29.2,14.4,28.7,14.9,28.1,14.9z"/>
			<path class="st1" d="M86.1,14.9c-0.6,0-1.1-0.5-1.1-1.1c0-0.6,0.5-1.1,1.1-1.1c0.6,0,1.1,0.5,1.1,1.1
				C87.1,14.4,86.7,14.9,86.1,14.9z"/>
			<path class="st1" d="M26,17c0,0.6-0.5,1.1-1.1,1.1c-0.6,0-1.1-0.5-1.1-1.1c0-0.6,0.5-1.1,1.1-1.1C25.6,15.9,26,16.4,26,17z"/>
			<path class="st1" d="M28.1,77.1c0.6,0,1.1,0.5,1.1,1.1c0,0.6-0.5,1.1-1.1,1.1c-0.6,0-1.1-0.5-1.1-1.1
				C27.1,77.5,27.5,77.1,28.1,77.1z"/>
			<path class="st1" d="M26,74.9c0,0.6-0.5,1.1-1.1,1.1c-0.6,0-1.1-0.5-1.1-1.1c0-0.6,0.5-1.1,1.1-1.1C25.5,73.9,26,74.3,26,74.9z"
				/>
			<path class="st1" d="M32.7,81c0,0.6-0.5,1.1-1.1,1.1c-0.6,0-1.1-0.5-1.1-1.1c0-0.6,0.5-1.1,1.1-1.1C32.3,79.9,32.7,80.4,32.7,81z
				"/>
			<path class="st1" d="M81.5,10.9c0-0.6,0.5-1.1,1.1-1.1c0.6,0,1.1,0.5,1.1,1.1c0,0.6-0.5,1.1-1.1,1.1C81.9,12,81.5,11.6,81.5,10.9
				z"/>
			<path class="st1" d="M35.4,84.5c-0.6,0-1.1-0.5-1-1.2c0-0.6,0.6-1.1,1.2-1c0.6,0,1,0.5,1,1.1C36.5,84.1,36,84.6,35.4,84.5z"/>
			<path class="st1" d="M20.7,24.4c0,0.6-0.5,1.1-1.1,1c-0.6,0-1.1-0.6-1-1.1c0-0.6,0.5-1.1,1.2-1C20.3,23.3,20.7,23.8,20.7,24.4z"
				/>
			<path class="st1" d="M20.7,67.6c0,0.6-0.5,1.1-1,1.1c-0.6,0-1.1-0.5-1.1-1.1c0-0.6,0.5-1.1,1.1-1.1C20.2,66.5,20.7,67,20.7,67.6z
				"/>
			<path class="st1" d="M78.7,7.4c0.6,0,1.1,0.5,1.1,1.1c0,0.6-0.4,1.1-1,1.1c-0.6,0-1.1-0.5-1.1-1.1C77.7,7.9,78.1,7.4,78.7,7.4z"
				/>
			<path class="st1" d="M35.5,9.6c-0.6,0-1.1-0.5-1.1-1.1c0-0.6,0.5-1.1,1.1-1.1c0.6,0,1.1,0.5,1.1,1.1C36.6,9.1,36.1,9.6,35.5,9.6z
				"/>
		</g>
	</g>
	<g id="VXMRjD.tif_6_">
		<g>
			<path class="st1" d="M2,34.7c0.1-0.5,0.4-0.8,1-0.9c1-0.2,2-0.5,3-0.7c0.3-0.1,0.4-0.2,0.5-0.4c0-0.3,0.1-0.5,0.2-0.8
				c0.2-0.5,0.5-0.7,1-0.6c0.3,0.1,0.6,0.2,0.9,0.2c0.3,0.1,0.4,0.3,0.5,0.5c0,0.1,0,0.3,0.2,0.2c0.2,0,0.2-0.1,0.3-0.3
				c0.1-0.3,0.2-0.6,0.2-0.9c0.2-0.7,0.6-0.9,1.2-0.7c0.2,0.1,0.4,0.1,0.6,0.2c0.4,0.1,0.6,0.3,0.7,0.7c0,0.2,0.1,0.2,0.3,0.2
				c0.9-0.2,1.9-0.4,2.8-0.6c0.3-0.1,0.4-0.2,0.5-0.5c0.4-1.6,0.8-3.1,1.2-4.7c0.5-1.5,1.1-3,2-4.4c0.5-0.6,1-1.2,1.6-1.6
				c1-0.5,1.6-0.4,2.2,0.8c0.4,0.8,0.5,1.9,0.5,3c0,1.3-0.2,2.5-0.5,3.7c-0.4,1.6-0.9,3.2-1.4,4.8c-0.1,0.2,0,0.3,0.1,0.5
				c0.7,0.7,1.4,1.3,2.1,2c0.1,0.1,0.3,0.2,0.4,0c0,0,0,0,0.1,0c0.3-0.4,1-0.2,1.8,0.1c0.4,0.2,0.5,0.5,0.4,1.1
				c-0.1,0.3-0.2,0.6-0.2,0.9c-0.1,0.2,0,0.3,0.1,0.4c0.2,0.1,0.2,0,0.3-0.1c0.2-0.2,0.5-0.3,0.8-0.2c0.3,0.1,0.6,0.1,0.8,0.2
				c0.5,0.2,0.7,0.6,0.6,1.1l-0.1,0.2c-0.2,0.9-0.2,0.9,0.4,1.5c0.6,0.6,1.2,1.2,1.9,1.8c0.4,0.3,0.5,0.7,0.3,1.2
				c-0.1,0.5-0.3,1-0.4,1.4c-0.2,0.6-0.7,0.8-1.2,0.5c-2.3-1.4-4.7-2.8-7-4.2c-0.2-0.1-0.4-0.2-0.6-0.3c-0.8-0.2-1.5-0.4-2.3-0.6
				c-0.2-0.1-0.4-0.1-0.4,0.2c-0.8,2.5-1.6,4.9-2.6,7.3c-0.1,0.2,0,0.4,0.1,0.5c0.5,0.7,1,1.4,1.4,2.1c0.5,0.8,1,1.5,1.6,2.3
				c0.3,0.4,0.3,0.8,0.2,1.2c-0.1,0.2-0.1,0.4-0.2,0.6c-0.2,0.6-0.7,0.8-1.2,0.5c-0.8-0.6-1.6-1.1-2.4-1.7c-0.4-0.3-0.7-0.5-1.1-0.8
				c-0.5-0.3-0.6-0.3-1.1,0.1c-0.7,0.6-1.6,0.4-1.8-0.5c-0.2-0.5-0.3-0.6-0.9-0.6c-0.9,0-1.8,0.1-2.7,0.2C8.1,50.9,7.6,51,7,51
				c-0.6,0-1-0.4-0.8-1c0-0.2,0.1-0.4,0.1-0.6c0.1-0.5,0.4-0.8,0.9-1c1.6-0.7,3.1-1.4,4.7-2.1c0.2-0.1,0.3-0.2,0.4-0.5
				c0.3-2.5,0.9-5,1.5-7.5c0.1-0.3,0.1-0.4-0.3-0.5c-0.3-0.1-0.7-0.2-1-0.3c-1.3-0.5-2.7-0.4-4-0.4c-2,0-4,0-6,0
				c-0.8,0-1.1-0.4-0.9-1.1C1.7,35.6,1.9,35.2,2,34.7z"/>
		</g>
	</g>
</g>
</svg>
